# xmcd
# 
# Track frame offsets:
#     150
#     13176
#     34364
#     56423
#     77724
#     94008
#     110395
#     132115
#     149973
#     173541
#     189120
#     208029
# 
# Disc length: 3112
# 
# Revision: 3
# Processed by: cddbd v1.5.2PL0 Copyright (c) Steve Scherf et al.
# Submitted via: BonkEnc v1.0.6
# 
DISCID=a10c260c
DTITLE=Robin Trower - Another Days Blues
DYEAR=2005
DGENRE=Blues
TTITLE0=Inside Out
TTITLE1=Someday Blues
TTITLE2=Sweet Little Angel
TTITLE3=21st Century Blues
TTITLE4=Next In Line
TTITLE5=Go My Way
TTITLE6=Extermination Blues
TTITLE7=Looking For A True Love
TTITLE8=Shining Through
TTITLE9=Crossroads
TTITLE10=Feel So Bad
TTITLE11=This Blue Love
EXTD=
EXTT0=
EXTT1=
EXTT2=
EXTT3=
EXTT4=
EXTT5=
EXTT6=
EXTT7=
EXTT8=
EXTT9=
EXTT10=
EXTT11=
PLAYORDER=
